<?xml version="1.0" encoding="utf-8"?>
<!-- Generator: Adobe Illustrator 25.4.6, SVG Export Plug-In . SVG Version: 6.00 Build 0)  -->
<svg version="1.1" id="Capa_1" xmlns="http://www.w3.org/2000/svg" xmlns:xlink="http://www.w3.org/1999/xlink" x="0px" y="0px"
	 viewBox="0 0 70.51 80.32" style="enable-background:new 0 0 70.51 80.32;" xml:space="preserve">
<style type="text/css">
	.st0{fill:#FBD15B;}
	.st1{fill:#FB9B5B;}
	.st2{fill:#6B42B1;}
	.st3{fill:#C3439A;}
	.st4{fill:#FB435B;}
</style>
<g>
	<path class="st3" d="M58.51,4c4.41,0,8,3.59,8,8v28.94c0,4.41-3.59,8-8,8H12c-4.41,0-8-3.59-8-8V12c0-4.41,3.59-8,8-8H58.51
		 M58.51,0H12C5.4,0,0,5.4,0,12v28.94c0,6.6,5.4,12,12,12h46.51c6.6,0,12-5.4,12-12V12C70.51,5.4,65.11,0,58.51,0L58.51,0z"/>
	<g>
		<path class="st3" d="M26.56,19.34v19.53h-5.39V19.34h-7.46v-4.97h20.3v4.97H26.56z"/>
		<path class="st3" d="M38.14,38.87v-24.5h18.48v4.8H43.5v4.97h11.55v4.79H43.5v5.15h13.3v4.8H38.14z"/>
	</g>
	<g>
		<polygon class="st3" points="10.1,66.98 11.9,71.87 17.11,72.07 13.02,75.3 14.43,80.32 10.1,77.42 5.76,80.32 7.18,75.3 
			3.09,72.07 8.29,71.87 		"/>
		<polygon class="st3" points="26.87,66.98 28.67,71.87 33.88,72.07 29.79,75.3 31.2,80.32 26.87,77.42 22.54,80.32 23.95,75.3 
			19.86,72.07 25.06,71.87 		"/>
		<polygon class="st3" points="43.64,66.98 45.45,71.87 50.65,72.07 46.56,75.3 47.97,80.32 43.64,77.42 39.31,80.32 40.72,75.3 
			36.63,72.07 41.84,71.87 		"/>
		<polygon class="st3" points="60.41,66.98 62.22,71.87 67.42,72.07 63.33,75.3 64.75,80.32 60.41,77.42 56.08,80.32 57.49,75.3 
			53.4,72.07 58.61,71.87 		"/>
	</g>
</g>
</svg>
