<?xml version="1.0" encoding="utf-8"?>
<!-- Generator: Adobe Illustrator 25.4.6, SVG Export Plug-In . SVG Version: 6.00 Build 0)  -->
<svg version="1.1" id="Capa_1" xmlns="http://www.w3.org/2000/svg" xmlns:xlink="http://www.w3.org/1999/xlink" x="0px" y="0px"
	 viewBox="0 0 70.51 80.32" style="enable-background:new 0 0 70.51 80.32;" xml:space="preserve">
<style type="text/css">
	.st0{fill:#FBD15B;}
	.st1{fill:#FB9B5B;}
	.st2{fill:#6B42B1;}
	.st3{fill:#C3439A;}
	.st4{fill:#FB435B;}
</style>
<g>
	<path class="st4" d="M58.51,4c4.41,0,8,3.59,8,8v28.94c0,4.41-3.59,8-8,8H12c-4.41,0-8-3.59-8-8V12c0-4.41,3.59-8,8-8H58.51
		 M58.51,0H12C5.4,0,0,5.4,0,12v28.94c0,6.6,5.4,12,12,12h46.51c6.6,0,12-5.4,12-12V12C70.51,5.4,65.11,0,58.51,0L58.51,0z"/>
	<g>
		<path class="st4" d="M25.65,19.34v19.53h-5.39V19.34H12.8v-4.97h20.3v4.97H25.65z"/>
		<path class="st4" d="M47.66,39.29c-7.21,0-12.57-5.57-12.57-12.6v-0.07c0-6.97,5.25-12.67,12.78-12.67c4.62,0,7.39,1.54,9.66,3.78
			l-3.43,3.96c-1.89-1.72-3.82-2.77-6.27-2.77c-4.13,0-7.11,3.43-7.11,7.63v0.07c0,4.2,2.91,7.7,7.11,7.7c2.8,0,4.52-1.12,6.44-2.87
			l3.43,3.47C55.19,37.61,52.39,39.29,47.66,39.29z"/>
	</g>
	<g>
		<polygon class="st4" points="18.48,66.98 20.29,71.87 25.49,72.07 21.4,75.3 22.82,80.32 18.48,77.42 14.15,80.32 15.56,75.3 
			11.47,72.07 16.68,71.87 		"/>
		<polygon class="st4" points="35.26,66.98 37.06,71.87 42.27,72.07 38.18,75.3 39.59,80.32 35.26,77.42 30.92,80.32 32.33,75.3 
			28.24,72.07 33.45,71.87 		"/>
		<polygon class="st4" points="52.03,66.98 53.83,71.87 59.04,72.07 54.95,75.3 56.36,80.32 52.03,77.42 47.69,80.32 49.11,75.3 
			45.02,72.07 50.22,71.87 		"/>
	</g>
</g>
</svg>
