<?xml version="1.0" encoding="utf-8"?>
<!-- Generator: Adobe Illustrator 25.4.6, SVG Export Plug-In . SVG Version: 6.00 Build 0)  -->
<svg version="1.1" id="Capa_1" xmlns="http://www.w3.org/2000/svg" xmlns:xlink="http://www.w3.org/1999/xlink" x="0px" y="0px"
	 viewBox="0 0 52.94 80.32" style="enable-background:new 0 0 52.94 80.32;" xml:space="preserve">
<style type="text/css">
	.st0{fill:#FBD15B;}
	.st1{fill:#FB9B5B;}
	.st2{fill:#6B42B1;}
	.st3{fill:#C3439A;}
	.st4{fill:#FB435B;}
</style>
<path class="st0" d="M40.94,4c4.41,0,8,3.59,8,8v28.94c0,4.41-3.59,8-8,8H12c-4.41,0-8-3.59-8-8V12c0-4.41,3.59-8,8-8H40.94
	 M40.94,0H12C5.4,0,0,5.4,0,12v28.94c0,6.6,5.4,12,12,12h28.94c6.6,0,12-5.4,12-12V12C52.94,5.4,47.54,0,40.94,0L40.94,0z"/>
<g>
	<path class="st0" d="M33.82,38.87l-2.24-5.5H21.22l-2.24,5.5h-5.5l10.5-24.68h4.97l10.5,24.68H33.82z M26.4,20.67l-3.26,7.95h6.51
		L26.4,20.67z"/>
</g>
<g>
	<polygon class="st0" points="26.47,66.98 28.28,71.87 33.48,72.07 29.39,75.3 30.81,80.32 26.47,77.42 22.14,80.32 23.55,75.3 
		19.46,72.07 24.67,71.87 	"/>
</g>
</svg>
