<?xml version="1.0" encoding="utf-8"?>
<!-- Generator: Adobe Illustrator 25.4.6, SVG Export Plug-In . SVG Version: 6.00 Build 0)  -->
<svg version="1.1" id="Capa_1" xmlns="http://www.w3.org/2000/svg" xmlns:xlink="http://www.w3.org/1999/xlink" x="0px" y="0px"
	 viewBox="0 0 81.11 80.32" style="enable-background:new 0 0 81.11 80.32;" xml:space="preserve">
<style type="text/css">
	.st0{fill:#FBD15B;}
	.st1{fill:#FB9B5B;}
	.st2{fill:#6B42B1;}
	.st3{fill:#C3439A;}
	.st4{fill:#FB435B;}
</style>
<g>
	<path class="st2" d="M63.81,4c4.41,0,8,3.59,8,8v28.94c0,4.41-3.59,8-8,8H17.3c-4.41,0-8-3.59-8-8V12c0-4.41,3.59-8,8-8H63.81
		 M63.81,0H17.3c-6.6,0-12,5.4-12,12v28.94c0,6.6,5.4,12,12,12h46.51c6.6,0,12-5.4,12-12V12C75.81,5.4,70.41,0,63.81,0L63.81,0z"/>
	<g>
		<path class="st2" d="M31.49,19.34v19.53H26.1V19.34h-7.46v-4.97h20.3v4.97H31.49z"/>
		<path class="st2" d="M52.56,31.52h-4.09v7.35h-5.39v-24.5h10.01c5.85,0,9.38,3.47,9.38,8.47v0.07
			C62.47,28.58,58.05,31.52,52.56,31.52z M57,22.94c0-2.42-1.68-3.71-4.38-3.71h-4.17v7.49h4.27c2.7,0,4.27-1.61,4.27-3.71V22.94z"
			/>
	</g>
	<g>
		<polygon class="st2" points="7.01,66.98 8.82,71.87 14.02,72.07 9.93,75.3 11.34,80.32 7.01,77.42 2.68,80.32 4.09,75.3 0,72.07 
			5.21,71.87 		"/>
		<polygon class="st2" points="23.78,66.98 25.59,71.87 30.79,72.07 26.7,75.3 28.12,80.32 23.78,77.42 19.45,80.32 20.86,75.3 
			16.77,72.07 21.98,71.87 		"/>
		<polygon class="st2" points="40.55,66.98 42.36,71.87 47.56,72.07 43.48,75.3 44.89,80.32 40.55,77.42 36.22,80.32 37.63,75.3 
			33.54,72.07 38.75,71.87 		"/>
		<polygon class="st2" points="57.33,66.98 59.13,71.87 64.34,72.07 60.25,75.3 61.66,80.32 57.33,77.42 52.99,80.32 54.4,75.3 
			50.31,72.07 55.52,71.87 		"/>
		<polygon class="st2" points="74.1,66.98 75.9,71.87 81.11,72.07 77.02,75.3 78.43,80.32 74.1,77.42 69.76,80.32 71.18,75.3 
			67.09,72.07 72.29,71.87 		"/>
	</g>
</g>
</svg>
