<?xml version="1.0" encoding="utf-8"?>
<!-- Generator: Adobe Illustrator 25.4.6, SVG Export Plug-In . SVG Version: 6.00 Build 0)  -->
<svg version="1.1" id="Capa_1" xmlns="http://www.w3.org/2000/svg" xmlns:xlink="http://www.w3.org/1999/xlink" x="0px" y="0px"
	 viewBox="0 0 52.94 80.32" style="enable-background:new 0 0 52.94 80.32;" xml:space="preserve">
<style type="text/css">
	.st0{fill:#FBD15B;}
	.st1{fill:#FB9B5B;}
	.st2{fill:#6B42B1;}
	.st3{fill:#C3439A;}
	.st4{fill:#FB435B;}
</style>
<path class="st1" d="M40.94,4c4.41,0,8,3.59,8,8v28.94c0,4.41-3.59,8-8,8H12c-4.41,0-8-3.59-8-8V12c0-4.41,3.59-8,8-8H40.94
	 M40.94,0H12C5.4,0,0,5.4,0,12v28.94c0,6.6,5.4,12,12,12h28.94c6.6,0,12-5.4,12-12V12C52.94,5.4,47.54,0,40.94,0L40.94,0z"/>
<g>
	<path class="st1" d="M29.17,19.34v19.53h-5.39V19.34h-7.46v-4.97h20.3v4.97H29.17z"/>
</g>
<g>
	<polygon class="st1" points="18.09,66.98 19.89,71.87 25.1,72.07 21.01,75.3 22.42,80.32 18.09,77.42 13.75,80.32 15.17,75.3 
		11.08,72.07 16.28,71.87 	"/>
	<polygon class="st1" points="34.86,66.98 36.66,71.87 41.87,72.07 37.78,75.3 39.19,80.32 34.86,77.42 30.52,80.32 31.94,75.3 
		27.85,72.07 33.05,71.87 	"/>
</g>
</svg>
