<?xml version="1.0" encoding="utf-8"?>
<!-- Generator: Adobe Illustrator 25.4.6, SVG Export Plug-In . SVG Version: 6.00 Build 0)  -->
<svg version="1.1" id="Layer_1" xmlns="http://www.w3.org/2000/svg" xmlns:xlink="http://www.w3.org/1999/xlink" x="0px" y="0px"
	 viewBox="0 0 512 512" style="enable-background:new 0 0 512 512;" xml:space="preserve">
<path d="M222.6,380.7c0-18.4,14.9-33.3,33.3-33.3s33.3,14.9,33.3,33.3S274.3,414,255.9,414S222.6,399.1,222.6,380.7z M373.6,310.1
	c13-13,13-34.1,0-47.1c-65-65-170.3-65-235.3,0c-12.8,13.2-12.4,34.3,0.8,47.1c12.9,12.5,33.3,12.5,46.2,0
	c39.5-37.7,101.7-37.7,141.2,0C339.5,323.1,360.6,323.1,373.6,310.1z M467.8,215.9c13-13,13-34.1,0-47.1
	c-117.1-116.8-306.6-116.8-423.7,0c-12.8,13.2-12.4,34.3,0.8,47.1c12.9,12.5,33.3,12.5,46.2,0c91.1-90.8,238.5-90.8,329.5,0
	C433.7,228.9,454.8,228.9,467.8,215.9z"/>
</svg>
