<?xml version="1.0" encoding="utf-8"?>
<!-- Generator: Adobe Illustrator 25.4.6, SVG Export Plug-In . SVG Version: 6.00 Build 0)  -->
<svg version="1.1" id="Capa_1" xmlns="http://www.w3.org/2000/svg" xmlns:xlink="http://www.w3.org/1999/xlink" x="0px" y="0px"
	 viewBox="0 0 838 234.25" style="enable-background:new 0 0 838 234.25;" xml:space="preserve">
<style type="text/css">
	.st0{fill:#264661;}
	.st1{fill:#FFFFFF;}
</style>
<g>
	<g>
		<path class="st0" d="M110.52,132.08c1.52,1.52,1.52,3.97,0,5.49l-56.68,56.68c-1.52,1.51-3.97,1.51-5.49,0l-6.4-6.4
			c-1.52-1.52-1.52-3.97,0-5.49l47.39-47.53L41.96,87.3c-1.52-1.52-1.52-3.97,0-5.49l6.4-6.4c1.51-1.52,3.97-1.52,5.49,0
			L110.52,132.08z"/>
		<path class="st0" d="M245.79,194.84H140.77c-1.48,0-2.68-1.24-2.68-2.76v-11.3c0-1.52,1.2-2.76,2.68-2.76h105.02
			c1.48,0,2.68,1.24,2.68,2.76v11.3C248.46,193.6,247.26,194.84,245.79,194.84z"/>
		<g>
			<path class="st1" d="M137.76,69.49h-31.84c-0.76,0-1.38-0.62-1.38-1.38V42.72c0-0.76,0.62-1.38,1.38-1.38h98.72
				c0.76,0,1.38,0.62,1.38,1.38v25.38c0,0.76-0.62,1.38-1.38,1.38h-32c-0.76,0-1.38,0.62-1.38,1.38v84.98
				c0,0.76-0.62,1.38-1.38,1.38h-29.36c-0.76,0-1.38-0.62-1.38-1.38V70.87C139.14,70.1,138.53,69.49,137.76,69.49z"/>
			<g>
				<path class="st0" d="M248.9,68.2V42.72c0-0.76-0.62-1.38-1.38-1.38h-29.35c-0.76,0-1.38,0.62-1.38,1.38V68.2
					c0,0.76,0.62,1.38,1.38,1.38h29.35C248.28,69.58,248.9,68.96,248.9,68.2z"/>
				<path class="st1" d="M216.79,81.65v74.2c0,0.76,0.62,1.38,1.38,1.38h29.35c0.76,0,1.38-0.62,1.38-1.38v-74.2
					c0-0.76-0.62-1.38-1.38-1.38h-29.35C217.4,80.27,216.79,80.89,216.79,81.65z"/>
			</g>
		</g>
	</g>
	<path class="st1" d="M309.48,81.12h-8.93V50.96h-11.08v-8.62h31.09v8.62h-11.08V81.12z"/>
	<path class="st1" d="M340.57,42.34c2.01,0,3.85,0.33,5.51,0.99c1.66,0.66,3.09,1.54,4.28,2.65c1.19,1.11,2.11,2.41,2.77,3.91
		c0.66,1.5,0.98,3.09,0.98,4.77c0,2.18-0.38,4-1.14,5.48c-0.76,1.48-1.6,2.68-2.52,3.6c-0.92,0.92-2.17,1.8-3.72,2.62l8.62,14.77
		h-9.85l-7.08-12.93h-4.62v12.93h-8.93V42.34H340.57z M340.57,59.58c1.56,0,2.77-0.41,3.63-1.23s1.29-1.85,1.29-3.08
		c0-1.23-0.43-2.26-1.29-3.08c-0.86-0.82-2.07-1.23-3.63-1.23h-6.77v8.62H340.57z"/>
	<path class="st1" d="M367.65,73.73l-2.46,7.39h-9.23l13.85-38.78h9.23l13.85,38.78h-9.23l-2.46-7.39H367.65z M378.73,66.04
		l-4.31-12.93l-4.31,12.93H378.73z"/>
	<path class="st1" d="M420.29,60.5c1.15,0.53,2.18,1.23,3.08,2.09c0.78,0.74,1.49,1.68,2.12,2.83c0.64,1.15,0.95,2.59,0.95,4.31
		c0,1.56-0.31,3.03-0.92,4.4c-0.61,1.38-1.49,2.58-2.62,3.6c-1.13,1.03-2.46,1.85-4,2.46c-1.54,0.62-3.23,0.92-5.08,0.92h-17.54
		V42.34h16.62c1.76,0,3.39,0.29,4.86,0.86c1.48,0.57,2.74,1.35,3.79,2.34c1.05,0.99,1.87,2.12,2.46,3.42
		c0.59,1.29,0.89,2.68,0.89,4.16c0,1.31-0.25,2.44-0.74,3.39c-0.49,0.94-1.03,1.7-1.6,2.28C421.87,59.47,421.11,60.05,420.29,60.5z
		 M405.21,57.73h6.77c1.23,0,2.26-0.4,3.08-1.2c0.82-0.8,1.23-1.73,1.23-2.8c0-1.07-0.41-2-1.23-2.8c-0.82-0.8-1.85-1.2-3.08-1.2
		h-6.77V57.73z M412.9,73.73c1.4,0,2.57-0.46,3.51-1.39c0.94-0.92,1.42-2,1.42-3.23s-0.47-2.31-1.42-3.23
		c-0.94-0.92-2.11-1.39-3.51-1.39h-7.7v9.23H412.9z"/>
	<path class="st1" d="M439.06,73.73l-2.46,7.39h-9.23l13.85-38.78h9.23l13.85,38.78h-9.23l-2.46-7.39H439.06z M450.15,66.04
		l-4.31-12.93l-4.31,12.93H450.15z"/>
	<path class="st1" d="M490.78,42.34v25.86c0,2.01-0.32,3.83-0.95,5.45c-0.64,1.62-1.53,3.01-2.68,4.16
		c-1.15,1.15-2.54,2.04-4.16,2.68c-1.62,0.64-3.44,0.95-5.45,0.95c-2.01,0-3.83-0.31-5.45-0.92c-1.62-0.62-3.01-1.49-4.15-2.62
		c-1.15-1.13-2.04-2.46-2.68-4c-0.64-1.54-0.95-3.23-0.95-5.08c0.74-0.04,1.61-0.09,2.62-0.15c1-0.06,1.98-0.13,2.92-0.22
		c1.07-0.08,2.2-0.16,3.39-0.25c0,1.4,0.41,2.51,1.23,3.36c0.82,0.84,1.85,1.26,3.08,1.26c1.23,0,2.26-0.42,3.08-1.26
		c0.82-0.84,1.23-1.96,1.23-3.36V42.34H490.78z"/>
	<path class="st1" d="M504.63,73.73l-2.46,7.39h-9.23l13.85-38.78h9.23l13.85,38.78h-9.23l-2.46-7.39H504.63z M515.71,66.04
		l-4.31-12.93l-4.31,12.93H515.71z"/>
	<path class="st1" d="M533.25,42.34h13.24c2.71,0,5.23,0.5,7.57,1.51c2.34,1.01,4.39,2.39,6.16,4.16c1.76,1.77,3.15,3.82,4.15,6.16
		c1.01,2.34,1.51,4.86,1.51,7.57c0,2.71-0.5,5.23-1.51,7.57c-1.01,2.34-2.39,4.39-4.15,6.16c-1.77,1.77-3.82,3.15-6.16,4.16
		c-2.34,1.01-4.86,1.51-7.57,1.51h-13.24V42.34z M546.49,72.5c1.48,0,2.85-0.28,4.12-0.83c1.27-0.55,2.38-1.3,3.32-2.25
		c0.94-0.94,1.68-2.07,2.22-3.39c0.53-1.31,0.8-2.75,0.8-4.31c0-1.52-0.27-2.94-0.8-4.28c-0.53-1.33-1.27-2.47-2.22-3.42
		c-0.94-0.94-2.05-1.69-3.32-2.25c-1.27-0.55-2.65-0.83-4.12-0.83h-4.31V72.5H546.49z"/>
	<path class="st1" d="M607.74,61.73c0,2.79-0.5,5.38-1.51,7.76c-1.01,2.38-2.37,4.46-4.09,6.25c-1.72,1.79-3.75,3.18-6.06,4.19
		c-2.32,1.01-4.79,1.51-7.42,1.51c-2.63,0-5.1-0.5-7.42-1.51c-2.32-1.01-4.34-2.4-6.06-4.19c-1.72-1.78-3.09-3.87-4.09-6.25
		c-1.01-2.38-1.51-4.97-1.51-7.76c0-2.75,0.5-5.32,1.51-7.73c1-2.4,2.37-4.49,4.09-6.28c1.72-1.79,3.74-3.18,6.06-4.19
		c2.32-1.01,4.79-1.51,7.42-1.51c2.63,0,5.1,0.5,7.42,1.51c2.32,1.01,4.34,2.4,6.06,4.19c1.72,1.79,3.09,3.88,4.09,6.28
		C607.24,56.4,607.74,58.98,607.74,61.73z M598.82,61.73c0-1.6-0.27-3.08-0.8-4.43c-0.53-1.35-1.26-2.52-2.19-3.51
		c-0.92-0.99-2-1.75-3.23-2.31c-1.23-0.55-2.54-0.83-3.94-0.83c-1.4,0-2.71,0.28-3.94,0.83c-1.23,0.55-2.31,1.32-3.23,2.31
		c-0.92,0.99-1.65,2.15-2.18,3.51c-0.53,1.35-0.8,2.83-0.8,4.43c0,1.6,0.27,3.08,0.8,4.43c0.53,1.35,1.26,2.52,2.18,3.51
		c0.92,0.99,2,1.75,3.23,2.31c1.23,0.55,2.54,0.83,3.94,0.83c1.39,0,2.71-0.28,3.94-0.83c1.23-0.55,2.31-1.32,3.23-2.31
		c0.92-0.98,1.65-2.15,2.19-3.51C598.55,64.81,598.82,63.33,598.82,61.73z"/>
	<path class="st1" d="M628.98,42.34c2.01,0,3.85,0.33,5.51,0.99c1.66,0.66,3.09,1.54,4.28,2.65c1.19,1.11,2.11,2.41,2.77,3.91
		c0.66,1.5,0.98,3.09,0.98,4.77c0,2.18-0.38,4-1.14,5.48c-0.76,1.48-1.6,2.68-2.52,3.6c-0.92,0.92-2.17,1.8-3.72,2.62l8.62,14.77
		h-9.85l-7.08-12.93h-4.62v12.93h-8.93V42.34H628.98z M628.98,59.58c1.56,0,2.77-0.41,3.63-1.23s1.29-1.85,1.29-3.08
		c0-1.23-0.43-2.26-1.29-3.08c-0.86-0.82-2.07-1.23-3.63-1.23h-6.77v8.62H628.98z"/>
	<path class="st1" d="M648.37,42.34h27.7v8.62H657.3v6.16h17.24v8.62H657.3v6.77h19.39v8.62h-28.32V42.34z"/>
	<path class="st1" d="M681.31,53.11c0-1.48,0.32-2.88,0.95-4.22c0.64-1.33,1.55-2.5,2.74-3.51c1.19-1.01,2.64-1.82,4.34-2.43
		c1.7-0.62,3.64-0.92,5.82-0.92c2.09,0,3.97,0.31,5.63,0.92c1.66,0.62,3.08,1.48,4.25,2.59c1.17,1.11,2.07,2.41,2.71,3.91
		c0.64,1.5,0.95,3.13,0.95,4.89l-8.62,0.62c0-1.56-0.43-2.77-1.29-3.63c-0.86-0.86-2.07-1.29-3.63-1.29c-1.4,0-2.51,0.38-3.36,1.14
		c-0.84,0.76-1.26,1.61-1.26,2.56c0,0.94,0.47,1.66,1.42,2.15c0.94,0.49,2.12,0.95,3.54,1.39c1.42,0.43,2.94,0.89,4.59,1.39
		c1.64,0.49,3.17,1.19,4.59,2.09c1.42,0.9,2.6,2.09,3.54,3.57c0.94,1.48,1.42,3.39,1.42,5.73c0,1.56-0.32,3.03-0.95,4.4
		c-0.64,1.38-1.57,2.58-2.8,3.6c-1.23,1.03-2.75,1.85-4.56,2.46c-1.81,0.62-3.86,0.92-6.16,0.92c-2.22,0-4.21-0.31-5.97-0.92
		c-1.77-0.62-3.25-1.49-4.46-2.62c-1.21-1.13-2.13-2.46-2.77-4c-0.64-1.54-0.95-3.23-0.95-5.08l8.62-0.62
		c0,3.49,1.85,5.23,5.54,5.23c1.72,0,3.03-0.4,3.91-1.2c0.88-0.8,1.32-1.73,1.32-2.8c0-0.99-0.47-1.74-1.42-2.28
		c-0.94-0.53-2.12-1.03-3.54-1.48c-1.42-0.45-2.95-0.92-4.59-1.42c-1.64-0.49-3.17-1.18-4.59-2.06c-1.42-0.88-2.6-2.04-3.54-3.48
		C681.78,57.28,681.31,55.41,681.31,53.11z"/>
	<path class="st1" d="M304.63,158.07h-11.16v-48.48h11.16V158.07z"/>
	<path class="st1" d="M354.65,109.59v48.48h-10l-19.62-28.47v28.47h-11.16v-48.48h10l19.62,28.47v-28.47H354.65z"/>
	<path class="st1" d="M363.88,109.59h33.47v10.77h-22.32v10h18.08v10.77h-18.08v16.93h-11.16V109.59z"/>
	<path class="st1" d="M447.76,133.83c0,3.49-0.63,6.72-1.88,9.7c-1.26,2.98-2.96,5.58-5.12,7.81c-2.15,2.23-4.68,3.98-7.58,5.23
		c-2.9,1.26-5.99,1.88-9.27,1.88c-3.28,0-6.38-0.63-9.27-1.88c-2.9-1.26-5.42-3-7.58-5.23c-2.15-2.23-3.86-4.83-5.12-7.81
		c-1.26-2.97-1.88-6.21-1.88-9.7c0-3.44,0.63-6.66,1.88-9.66c1.26-3,2.96-5.62,5.12-7.85c2.16-2.23,4.68-3.98,7.58-5.23
		c2.9-1.26,5.99-1.89,9.27-1.89c3.28,0,6.37,0.63,9.27,1.89c2.9,1.26,5.43,3,7.58,5.23c2.15,2.23,3.86,4.85,5.12,7.85
		C447.13,127.18,447.76,130.4,447.76,133.83z M436.6,133.83c0-2-0.33-3.85-1-5.54c-0.67-1.69-1.58-3.15-2.73-4.39
		c-1.15-1.23-2.5-2.19-4.04-2.89c-1.54-0.69-3.18-1.04-4.92-1.04c-1.74,0-3.39,0.35-4.93,1.04c-1.54,0.69-2.89,1.65-4.04,2.89
		c-1.15,1.23-2.07,2.69-2.73,4.39c-0.67,1.69-1,3.54-1,5.54c0,2,0.33,3.85,1,5.54c0.67,1.69,1.58,3.15,2.73,4.39
		c1.15,1.23,2.5,2.19,4.04,2.89c1.54,0.69,3.18,1.04,4.93,1.04c1.74,0,3.39-0.35,4.92-1.04c1.54-0.69,2.89-1.65,4.04-2.89
		c1.15-1.23,2.07-2.69,2.73-4.39C436.27,137.68,436.6,135.83,436.6,133.83z"/>
	<path class="st1" d="M474.31,109.59c2.51,0,4.81,0.41,6.89,1.23c2.08,0.82,3.86,1.92,5.35,3.31c1.49,1.38,2.64,3.01,3.46,4.89
		c0.82,1.87,1.23,3.86,1.23,5.96c0,2.72-0.47,5-1.42,6.85c-0.95,1.85-2,3.35-3.15,4.5c-1.15,1.15-2.71,2.25-4.66,3.27l10.77,18.47
		h-12.31l-8.85-16.16h-5.77v16.16h-11.16v-48.48H474.31z M474.31,131.14c1.95,0,3.46-0.51,4.54-1.54c1.08-1.03,1.62-2.31,1.62-3.85
		c0-1.54-0.54-2.82-1.62-3.85c-1.08-1.03-2.59-1.54-4.54-1.54h-8.47v10.77H474.31z"/>
	<path class="st1" d="M540.1,109.59h10v48.48h-11.16v-24.24l-11.16,24.24h-6.93l-11.16-24.24v24.24h-11.16v-48.48h10l15.77,34.24
		L540.1,109.59z"/>
	<path class="st1" d="M568.96,148.84l-3.08,9.23h-11.54l17.31-48.48h11.54l17.31,48.48h-11.54l-3.08-9.23H568.96z M582.81,139.22
		l-5.39-16.16l-5.39,16.16H582.81z M578.58,94.2h10.39l-7.31,10h-8.08L578.58,94.2z"/>
	<path class="st1" d="M622.82,158.07h-11.16v-37.71h-13.85v-10.77h38.86v10.77h-13.85V158.07z"/>
	<path class="st1" d="M653.22,158.07h-11.16v-48.48h11.16V158.07z"/>
	<path class="st1" d="M684,147.68c3.08,0,5.5-0.73,7.27-2.19c1.77-1.46,2.94-3.17,3.5-5.12l11.54,0.77
		c-0.56,2.31-1.49,4.52-2.77,6.62c-1.28,2.1-2.87,3.94-4.77,5.5c-1.9,1.57-4.09,2.82-6.58,3.77c-2.49,0.95-5.22,1.42-8.19,1.42
		c-3.28,0-6.38-0.63-9.27-1.88c-2.9-1.26-5.42-3-7.58-5.23c-2.15-2.23-3.86-4.83-5.12-7.81c-1.26-2.97-1.89-6.21-1.89-9.7
		c0-3.44,0.63-6.66,1.89-9.66c1.26-3,2.96-5.62,5.12-7.85c2.16-2.23,4.68-3.98,7.58-5.23c2.9-1.26,5.99-1.89,9.27-1.89
		c2.87,0,5.53,0.48,7.96,1.42c2.44,0.95,4.59,2.21,6.46,3.77c1.87,1.56,3.45,3.4,4.73,5.5c1.28,2.1,2.21,4.31,2.77,6.62l-11.54,0.77
		c-0.31-0.97-0.74-1.9-1.31-2.77c-0.57-0.87-1.28-1.64-2.16-2.31c-0.87-0.67-1.88-1.2-3.04-1.62c-1.15-0.41-2.45-0.62-3.89-0.62
		c-1.74,0-3.39,0.35-4.93,1.04c-1.54,0.69-2.89,1.65-4.04,2.89c-1.15,1.23-2.07,2.69-2.73,4.39c-0.67,1.69-1,3.54-1,5.54
		c0,2,0.33,3.85,1,5.54c0.67,1.69,1.58,3.15,2.73,4.39c1.15,1.23,2.5,2.19,4.04,2.89C680.61,147.34,682.26,147.68,684,147.68z"/>
	<path class="st1" d="M757.11,133.83c0,3.49-0.63,6.72-1.89,9.7c-1.26,2.98-2.96,5.58-5.12,7.81c-2.15,2.23-4.68,3.98-7.58,5.23
		c-2.9,1.26-5.99,1.88-9.27,1.88c-3.28,0-6.38-0.63-9.27-1.88c-2.9-1.26-5.42-3-7.58-5.23c-2.15-2.23-3.86-4.83-5.12-7.81
		c-1.26-2.97-1.88-6.21-1.88-9.7c0-3.44,0.63-6.66,1.88-9.66c1.26-3,2.96-5.62,5.12-7.85c2.16-2.23,4.68-3.98,7.58-5.23
		c2.9-1.26,5.99-1.89,9.27-1.89c3.28,0,6.37,0.63,9.27,1.89c2.9,1.26,5.43,3,7.58,5.23c2.15,2.23,3.86,4.85,5.12,7.85
		C756.48,127.18,757.11,130.4,757.11,133.83z M745.95,133.83c0-2-0.33-3.85-1-5.54c-0.67-1.69-1.58-3.15-2.73-4.39
		c-1.15-1.23-2.5-2.19-4.04-2.89c-1.54-0.69-3.18-1.04-4.92-1.04c-1.74,0-3.39,0.35-4.93,1.04c-1.54,0.69-2.89,1.65-4.04,2.89
		c-1.15,1.23-2.07,2.69-2.73,4.39c-0.67,1.69-1,3.54-1,5.54c0,2,0.33,3.85,1,5.54c0.67,1.69,1.58,3.15,2.73,4.39
		c1.15,1.23,2.5,2.19,4.04,2.89c1.54,0.69,3.18,1.04,4.93,1.04c1.74,0,3.39-0.35,4.92-1.04c1.54-0.69,2.89-1.65,4.04-2.89
		c1.15-1.23,2.07-2.69,2.73-4.39C745.61,137.68,745.95,135.83,745.95,133.83z"/>
	<path class="st1" d="M762.11,123.06c0-1.85,0.4-3.6,1.19-5.27c0.79-1.67,1.94-3.13,3.42-4.39c1.49-1.26,3.3-2.27,5.42-3.04
		c2.13-0.77,4.55-1.15,7.27-1.15c2.62,0,4.96,0.39,7.04,1.15c2.08,0.77,3.85,1.85,5.31,3.23c1.46,1.39,2.59,3.01,3.39,4.89
		c0.79,1.87,1.19,3.91,1.19,6.12l-10.77,0.77c0-1.95-0.54-3.46-1.62-4.54c-1.08-1.08-2.59-1.62-4.54-1.62
		c-1.74,0-3.14,0.47-4.19,1.42c-1.05,0.95-1.58,2.01-1.58,3.19c0,1.18,0.59,2.08,1.77,2.69c1.18,0.62,2.65,1.19,4.42,1.73
		c1.77,0.54,3.68,1.12,5.73,1.73c2.05,0.62,3.96,1.49,5.73,2.62c1.77,1.13,3.24,2.62,4.42,4.46c1.18,1.85,1.77,4.23,1.77,7.16
		c0,1.95-0.4,3.78-1.19,5.5c-0.8,1.72-1.96,3.22-3.5,4.5c-1.54,1.28-3.44,2.31-5.7,3.08c-2.26,0.77-4.82,1.15-7.7,1.15
		c-2.77,0-5.26-0.38-7.46-1.15c-2.21-0.77-4.07-1.86-5.58-3.27c-1.51-1.41-2.67-3.08-3.46-5c-0.8-1.92-1.19-4.04-1.19-6.35
		l10.77-0.77c0,4.36,2.31,6.54,6.92,6.54c2.16,0,3.78-0.5,4.89-1.5c1.1-1,1.65-2.17,1.65-3.5c0-1.23-0.59-2.18-1.77-2.85
		c-1.18-0.67-2.66-1.28-4.42-1.85c-1.77-0.56-3.68-1.15-5.73-1.77c-2.05-0.62-3.96-1.47-5.73-2.58c-1.77-1.1-3.25-2.55-4.42-4.35
		C762.7,128.27,762.11,125.93,762.11,123.06z"/>
</g>
</svg>
