<?xml version="1.0" encoding="utf-8"?>
<!-- Generator: Adobe Illustrator 25.4.6, SVG Export Plug-In . SVG Version: 6.00 Build 0)  -->
<svg version="1.1" id="Capa_1" xmlns="http://www.w3.org/2000/svg" xmlns:xlink="http://www.w3.org/1999/xlink" x="0px" y="0px"
	 viewBox="0 0 838 234.25" style="enable-background:new 0 0 838 234.25;" xml:space="preserve">
<style type="text/css">
	.st0{fill:#FFFFFF;}
	.st1{opacity:0.75;}
</style>
<g>
	<g>
		<path class="st0" d="M134.79,234.26c-64.58,0-117.13-52.54-117.13-117.13C17.66,52.54,70.21,0,134.79,0
			c64.58,0,117.13,52.54,117.13,117.13C251.92,181.71,199.37,234.26,134.79,234.26z M134.79,10C75.72,10,27.66,58.06,27.66,117.13
			s48.06,107.13,107.13,107.13s107.13-48.06,107.13-107.13S193.86,10,134.79,10z"/>
	</g>
	<g>
		<g class="st1">
			
				<rect x="88.2" y="68.21" transform="matrix(0.7071 -0.7071 0.7071 0.7071 -29.4555 99.3886)" class="st0" width="34.09" height="34.09"/>
		</g>
		<g class="st1">
			
				<rect x="117.2" y="39.21" transform="matrix(0.7071 -0.7071 0.7071 0.7071 -0.4555 111.4008)" class="st0" width="34.09" height="34.09"/>
		</g>
		
			<rect x="146.2" y="68.21" transform="matrix(0.7071 0.7071 -0.7071 0.7071 108.0944 -90.4624)" class="st0" width="34.09" height="34.09"/>
	</g>
	<g>
		<path class="st0" d="M85.03,127.8h12.34l19.67,46.53h-13.73l-3.37-8.25H82.12l-3.3,8.25H65.36L85.03,127.8z M96.24,156.11
			l-5.15-13.13l-5.21,13.13H96.24z"/>
		<path class="st0" d="M113.67,151.36v-0.13c0-13.46,10.56-24.02,24.88-24.02c8.12,0,13.86,2.51,18.74,6.73l-7.52,9.04
			c-3.3-2.77-6.6-4.36-11.15-4.36c-6.67,0-11.81,5.61-11.81,12.67v0.13c0,7.46,5.21,12.8,12.54,12.8c3.1,0,5.48-0.66,7.39-1.91
			v-5.61h-9.11v-9.37h21.25v20.79c-4.88,4.03-11.68,7.13-20.06,7.13C124.43,175.25,113.67,165.35,113.67,151.36z"/>
		<path class="st0" d="M161.13,151.36v-0.13c0-13.46,10.36-24.02,24.35-24.02c9.44,0,15.51,3.96,19.6,9.64l-9.63,7.46
			c-2.64-3.3-5.68-5.41-10.1-5.41c-6.47,0-11.02,5.48-11.02,12.21v0.13c0,6.93,4.55,12.34,11.02,12.34c4.82,0,7.66-2.24,10.43-5.61
			l9.64,6.86c-4.36,6-10.23,10.43-20.46,10.43C171.75,175.25,161.13,165.15,161.13,151.36z"/>
	</g>
</g>
<g>
	<path class="st0" d="M326.12,66.56h6.84l18.48,42.3h-7.8l-4.26-10.14h-19.86l-4.32,10.14h-7.56L326.12,66.56z M336.68,92.18
		l-7.26-16.8l-7.2,16.8H336.68z"/>
	<path class="st0" d="M352.22,104.72l3.24-4.92c3.48,2.58,7.14,3.9,10.38,3.9c3.12,0,4.92-1.32,4.92-3.42v-0.12
		c0-2.46-3.36-3.3-7.08-4.44c-4.68-1.32-9.9-3.24-9.9-9.3V86.3c0-6,4.98-9.66,11.28-9.66c3.96,0,8.28,1.38,11.64,3.6l-2.88,5.16
		c-3.06-1.86-6.3-3-8.94-3c-2.82,0-4.44,1.32-4.44,3.12v0.12c0,2.34,3.42,3.3,7.14,4.5c4.62,1.44,9.84,3.54,9.84,9.24v0.12
		c0,6.66-5.16,9.96-11.76,9.96C361.16,109.46,356.18,107.84,352.22,104.72z"/>
	<path class="st0" d="M380.12,93.2v-0.12c0-9.06,7.2-16.56,16.92-16.56s16.86,7.38,16.86,16.44v0.12c0,9-7.2,16.5-16.98,16.5
		C387.26,109.58,380.12,102.2,380.12,93.2z M406.64,93.2v-0.12c0-5.58-4.02-10.2-9.72-10.2c-5.82,0-9.54,4.56-9.54,10.08v0.12
		c0,5.52,4.02,10.14,9.66,10.14C402.92,103.22,406.64,98.66,406.64,93.2z"/>
	<path class="st0" d="M416.54,93.2v-0.12c0-9,6.96-16.56,16.5-16.56c5.94,0,9.66,2.22,12.66,5.46l-4.56,4.86
		c-2.22-2.34-4.56-3.96-8.16-3.96c-5.28,0-9.18,4.56-9.18,10.08v0.12c0,5.64,3.9,10.14,9.48,10.14c3.42,0,5.94-1.56,8.22-3.9
		l4.38,4.32c-3.12,3.48-6.78,5.94-12.96,5.94C423.5,109.58,416.54,102.2,416.54,93.2z"/>
	<path class="st0" d="M449.66,65.42h7.8v6.9h-7.8V65.42z M449.96,77.18h7.26v31.68h-7.26V77.18z"/>
	<path class="st0" d="M461.6,99.74v-0.12c0-6.84,5.34-10.2,13.08-10.2c3.54,0,6.06,0.54,8.52,1.32v-0.78c0-4.5-2.76-6.9-7.86-6.9
		c-3.54,0-6.18,0.78-9.06,1.98l-1.92-5.7c3.48-1.56,6.9-2.58,11.94-2.58c4.74,0,8.28,1.26,10.5,3.54c2.34,2.28,3.42,5.64,3.42,9.78
		v18.78h-7.08v-3.96c-2.16,2.58-5.46,4.62-10.32,4.62C466.88,109.52,461.6,106.1,461.6,99.74z M483.32,97.46V95.3
		c-1.86-0.72-4.32-1.26-7.2-1.26c-4.68,0-7.44,1.98-7.44,5.28v0.12c0,3.06,2.7,4.8,6.18,4.8
		C479.66,104.24,483.32,101.48,483.32,97.46z"/>
	<path class="st0" d="M494.18,93.2v-0.12c0-9,6.96-16.56,16.5-16.56c5.94,0,9.66,2.22,12.66,5.46l-4.56,4.86
		c-2.22-2.34-4.56-3.96-8.16-3.96c-5.28,0-9.18,4.56-9.18,10.08v0.12c0,5.64,3.9,10.14,9.48,10.14c3.42,0,5.94-1.56,8.22-3.9
		l4.38,4.32c-3.12,3.48-6.78,5.94-12.96,5.94C501.14,109.58,494.18,102.2,494.18,93.2z"/>
	<path class="st0" d="M527.3,65.42h7.8v6.9h-7.8V65.42z M527.6,77.18h7.26v31.68h-7.26V77.18z"/>
	<path class="st0" d="M539.6,93.2v-0.12c0-9.06,7.2-16.56,16.92-16.56s16.86,7.38,16.86,16.44v0.12c0,9-7.2,16.5-16.98,16.5
		C546.74,109.58,539.6,102.2,539.6,93.2z M566.12,93.2v-0.12c0-5.58-4.02-10.2-9.72-10.2c-5.82,0-9.54,4.56-9.54,10.08v0.12
		c0,5.52,4.02,10.14,9.66,10.14C562.4,103.22,566.12,98.66,566.12,93.2z M559.82,63.32l6.6,2.94l-7.38,6.9h-5.46L559.82,63.32z"/>
	<path class="st0" d="M577.76,77.18h7.26v4.86c2.04-2.94,4.98-5.52,9.9-5.52c7.14,0,11.28,4.8,11.28,12.12v20.22h-7.26v-18
		c0-4.92-2.46-7.74-6.78-7.74c-4.2,0-7.14,2.94-7.14,7.86v17.88h-7.26V77.18z"/>
	<path class="st0" d="M625.94,87.98v-0.12c0-11.76,9-21.72,21.66-21.72c7.32,0,11.82,2.04,16.14,5.7l-4.68,5.58
		c-3.24-2.76-6.42-4.5-11.76-4.5c-7.74,0-13.62,6.78-13.62,14.82v0.12c0,8.64,5.7,15,14.28,15c3.96,0,7.56-1.26,10.14-3.18v-7.86
		h-10.74V85.4h17.88v17.64c-4.14,3.54-10.08,6.54-17.52,6.54C634.58,109.58,625.94,100.22,625.94,87.98z"/>
	<path class="st0" d="M671,77.18h7.26v7.14c1.98-4.74,5.64-7.98,11.22-7.74v7.68h-0.42c-6.36,0-10.8,4.14-10.8,12.54v12.06H671
		V77.18z"/>
	<path class="st0" d="M689.96,93.14v-0.12c0-9.06,6.42-16.5,15.48-16.5c10.08,0,15.18,7.92,15.18,17.04c0,0.66-0.06,1.32-0.12,2.04
		h-23.28c0.78,5.16,4.44,8.04,9.12,8.04c3.54,0,6.06-1.32,8.58-3.78l4.26,3.78c-3,3.6-7.14,5.94-12.96,5.94
		C697.04,109.58,689.96,102.92,689.96,93.14z M713.42,90.8c-0.48-4.68-3.24-8.34-8.04-8.34c-4.44,0-7.56,3.42-8.22,8.34H713.42z"/>
	<path class="st0" d="M724.94,77.18h7.26v4.8c2.04-2.82,4.8-5.46,9.66-5.46c4.56,0,7.8,2.22,9.48,5.58
		c2.52-3.36,5.88-5.58,10.68-5.58c6.9,0,11.1,4.38,11.1,12.12v20.22h-7.26v-18c0-5.04-2.34-7.74-6.42-7.74
		c-3.96,0-6.78,2.76-6.78,7.86v17.88h-7.26V90.8c0-4.92-2.4-7.68-6.42-7.68c-4.02,0-6.78,3-6.78,7.86v17.88h-7.26V77.18z"/>
	<path class="st0" d="M779.06,65.42h7.8v6.9h-7.8V65.42z M779.36,77.18h7.26v31.68h-7.26V77.18z"/>
	<path class="st0" d="M791,99.74v-0.12c0-6.84,5.34-10.2,13.08-10.2c3.54,0,6.06,0.54,8.52,1.32v-0.78c0-4.5-2.76-6.9-7.86-6.9
		c-3.54,0-6.18,0.78-9.06,1.98l-1.92-5.7c3.48-1.56,6.9-2.58,11.94-2.58c4.74,0,8.28,1.26,10.5,3.54c2.34,2.28,3.42,5.64,3.42,9.78
		v18.78h-7.08v-3.96c-2.16,2.58-5.46,4.62-10.32,4.62C796.28,109.52,791,106.1,791,99.74z M812.72,97.46V95.3
		c-1.86-0.72-4.32-1.26-7.2-1.26c-4.68,0-7.44,1.98-7.44,5.28v0.12c0,3.06,2.7,4.8,6.18,4.8
		C809.06,104.24,812.72,101.48,812.72,97.46z"/>
	<path class="st0" d="M825.74,65.06H833v43.8h-7.26V65.06z"/>
	<path class="st0" d="M308.78,153.08v-0.12c0-10.5,7.14-16.44,14.7-16.44c5.22,0,8.52,2.58,10.8,5.58v-17.04h7.26v43.8h-7.26v-5.28
		c-2.34,3.3-5.64,5.94-10.8,5.94C316.04,169.52,308.78,163.58,308.78,153.08z M334.4,153.08v-0.12c0-6.12-4.32-10.14-9.18-10.14
		c-4.98,0-9.12,3.84-9.12,10.14v0.12c0,6.12,4.2,10.14,9.12,10.14C330.08,163.22,334.4,159.14,334.4,153.08z"/>
	<path class="st0" d="M345.92,153.14v-0.12c0-9.06,6.42-16.5,15.48-16.5c10.08,0,15.18,7.92,15.18,17.04c0,0.66-0.06,1.32-0.12,2.04
		h-23.28c0.78,5.16,4.44,8.04,9.12,8.04c3.54,0,6.06-1.32,8.58-3.78l4.26,3.78c-3,3.6-7.14,5.94-12.96,5.94
		C353,169.58,345.92,162.92,345.92,153.14z M369.38,150.8c-0.48-4.68-3.24-8.34-8.04-8.34c-4.44,0-7.56,3.42-8.22,8.34H369.38z"/>
	<path class="st0" d="M394.88,147.98v-0.12c0-11.94,8.94-21.72,21.66-21.72c7.74,0,12.42,2.7,16.44,6.54l-4.74,5.46
		c-3.36-3.12-6.96-5.22-11.76-5.22c-7.98,0-13.86,6.6-13.86,14.82v0.12c0,8.22,5.82,14.88,13.86,14.88c5.16,0,8.46-2.04,12.06-5.4
		l4.74,4.8c-4.38,4.56-9.18,7.44-17.04,7.44C404,169.58,394.88,160.04,394.88,147.98z"/>
	<path class="st0" d="M434.84,153.2v-0.12c0-9.06,7.2-16.56,16.92-16.56c9.72,0,16.86,7.38,16.86,16.44v0.12
		c0,9-7.2,16.5-16.98,16.5C441.98,169.58,434.84,162.2,434.84,153.2z M461.36,153.2v-0.12c0-5.58-4.02-10.2-9.72-10.2
		c-5.82,0-9.54,4.56-9.54,10.08v0.12c0,5.52,4.02,10.14,9.66,10.14C457.64,163.22,461.36,158.66,461.36,153.2z"/>
	<path class="st0" d="M473,137.18h7.26v4.8c2.04-2.82,4.8-5.46,9.66-5.46c4.56,0,7.8,2.22,9.48,5.58c2.52-3.36,5.88-5.58,10.68-5.58
		c6.9,0,11.1,4.38,11.1,12.12v20.22h-7.26v-18c0-5.04-2.34-7.74-6.42-7.74c-3.96,0-6.78,2.76-6.78,7.86v17.88h-7.26V150.8
		c0-4.92-2.4-7.68-6.42-7.68c-4.02,0-6.78,3-6.78,7.86v17.88H473V137.18z"/>
	<path class="st0" d="M527,137.18h7.26v5.28c2.34-3.3,5.64-5.94,10.8-5.94c7.44,0,14.7,5.88,14.7,16.44v0.12
		c0,10.5-7.2,16.44-14.7,16.44c-5.28,0-8.58-2.64-10.8-5.58v14.52H527V137.18z M552.38,153.08v-0.12c0-6.12-4.14-10.14-9.06-10.14
		s-9.24,4.08-9.24,10.14v0.12c0,6.06,4.32,10.14,9.24,10.14C548.3,163.22,552.38,159.32,552.38,153.08z"/>
	<path class="st0" d="M563.9,157.34v-20.16h7.26v18c0,4.92,2.46,7.68,6.78,7.68c4.2,0,7.14-2.88,7.14-7.8v-17.88h7.32v31.68h-7.32
		v-4.92c-2.04,3-4.98,5.58-9.9,5.58C568.04,169.52,563.9,164.72,563.9,157.34z"/>
	<path class="st0" d="M599.96,160.1v-16.68h-4.02v-6.24h4.02v-8.7h7.26v8.7h8.52v6.24h-8.52v15.54c0,2.82,1.44,3.96,3.9,3.96
		c1.62,0,3.06-0.36,4.5-1.08v5.94c-1.8,1.02-3.78,1.62-6.54,1.62C603.74,169.4,599.96,167.06,599.96,160.1z"/>
	<path class="st0" d="M618.02,159.74v-0.12c0-6.84,5.34-10.2,13.08-10.2c3.54,0,6.06,0.54,8.52,1.32v-0.78c0-4.5-2.76-6.9-7.86-6.9
		c-3.54,0-6.18,0.78-9.06,1.98l-1.92-5.7c3.48-1.56,6.9-2.58,11.94-2.58c4.74,0,8.28,1.26,10.5,3.54c2.34,2.28,3.42,5.64,3.42,9.78
		v18.78h-7.08v-3.96c-2.16,2.58-5.46,4.62-10.32,4.62C623.3,169.52,618.02,166.1,618.02,159.74z M639.74,157.46v-2.16
		c-1.86-0.72-4.32-1.26-7.2-1.26c-4.68,0-7.44,1.98-7.44,5.28v0.12c0,3.06,2.7,4.8,6.18,4.8
		C636.08,164.24,639.74,161.48,639.74,157.46z"/>
	<path class="st0" d="M650.6,153.2v-0.12c0-9,6.96-16.56,16.5-16.56c5.94,0,9.66,2.22,12.66,5.46l-4.56,4.86
		c-2.22-2.34-4.56-3.96-8.16-3.96c-5.28,0-9.18,4.56-9.18,10.08v0.12c0,5.64,3.9,10.14,9.48,10.14c3.42,0,5.94-1.56,8.22-3.9
		l4.38,4.32c-3.12,3.48-6.78,5.94-12.96,5.94C657.56,169.58,650.6,162.2,650.6,153.2z"/>
	<path class="st0" d="M683.72,125.42h7.8v6.9h-7.8V125.42z M684.02,137.18h7.26v31.68h-7.26V137.18z"/>
	<path class="st0" d="M696.02,153.2v-0.12c0-9.06,7.2-16.56,16.92-16.56s16.86,7.38,16.86,16.44v0.12c0,9-7.2,16.5-16.98,16.5
		C703.16,169.58,696.02,162.2,696.02,153.2z M722.54,153.2v-0.12c0-5.58-4.02-10.2-9.72-10.2c-5.82,0-9.54,4.56-9.54,10.08v0.12
		c0,5.52,4.02,10.14,9.66,10.14C718.82,163.22,722.54,158.66,722.54,153.2z M716.24,123.32l6.6,2.94l-7.38,6.9H710L716.24,123.32z"
		/>
	<path class="st0" d="M734.18,137.18h7.26v4.86c2.04-2.94,4.98-5.52,9.9-5.52c7.14,0,11.28,4.8,11.28,12.12v20.22h-7.26v-18
		c0-4.92-2.46-7.74-6.78-7.74c-4.2,0-7.14,2.94-7.14,7.86v17.88h-7.26V137.18z"/>
</g>
</svg>
